<?xml version="1.0" encoding="utf-8"?>
<!-- Generator: Adobe Illustrator 25.3.0, SVG Export Plug-In . SVG Version: 6.00 Build 0)  -->
<svg version="1.1" id="Layer_1" xmlns="http://www.w3.org/2000/svg" xmlns:xlink="http://www.w3.org/1999/xlink" x="0px" y="0px"
	 viewBox="0 0 512 512" style="enable-background:new 0 0 512 512;" xml:space="preserve">
<style type="text/css">
	.st0{fill:#FFFFFF;}
	.st1{fill:#E94335;}
	.st2{fill:#34A853;}
	.st3{fill:#4285F3;}
	.st4{fill:#FABB06;}
</style>
<rect class="st0" width="512" height="512"/>
<g>
	<path class="st1" d="M90.9,170.5c12.1-25.1,29.1-46.4,50.6-64.1c29.1-24.1,62.5-38.5,99.9-43c44-5.2,85.3,3.1,123.5,26
		c9.5,5.7,18.4,12.1,26.9,19.1c2.1,1.7,1.9,2.7,0.1,4.4c-17.4,17.3-34.7,34.6-51.9,52c-2,2-3.1,1.9-5.3,0.2
		c-50.4-38.8-124-28.3-161.6,23c-6.6,9-12,18.8-15.7,29.3c-0.3,0.9-0.9,1.8-1.4,2.7c-10-7.6-20.2-15.3-30.1-23
		C114.2,188.5,102.5,179.5,90.9,170.5z"/>
	<path class="st2" d="M156,293.4c3.3,7.4,6.1,15.1,10.4,22c17.7,29,42.9,47.6,76.1,54.2c30,6,58.8,1.9,85.6-13.1
		c0.9-0.5,1.9-0.9,2.7-1.4c0.5,0.5,0.9,1,1.3,1.4c20.1,15.6,40.2,31.1,60.3,46.7c-9.7,9.6-20.6,17.3-32.3,24
		c-33.9,19.3-70.5,27.1-109.1,24.1c-48.1-3.7-89.6-22.7-123.8-57c-15-15-27.4-32-36.3-51.4c8.3-6.4,16.7-12.7,25-19.1
		C129.2,313.7,142.6,303.6,156,293.4z"/>
	<path class="st3" d="M392.5,403.2c-20.1-15.6-40.2-31.1-60.3-46.7c-0.5-0.4-0.9-0.9-1.3-1.4c6.9-5.4,14-10.6,19.7-17.4
		c9.5-11.4,15.8-24.2,19.1-38.6c0.4-1.8,0.1-2.4-1.7-2.3c-0.9,0.1-1.8,0-2.7,0c-31.8,0-63.6-0.1-95.3,0.1c-3.5,0-4.3-0.9-4.2-4.3
		c0.2-22.6,0.2-45.1,0-67.7c0-2.9,0.8-3.7,3.7-3.7c58.2,0.1,116.4,0.1,174.7,0c2.5,0,3.5,0.6,4.1,3.3c4.7,21.4,4.4,42.9,1.6,64.5
		c-2.3,17.3-6.5,34-13,50.2c-9.6,23.9-23.7,44.8-42.2,62.7C393.8,402.4,393.1,402.8,392.5,403.2z"/>
	<path class="st4" d="M156,293.4c-13.4,10.2-26.8,20.3-40.2,30.5c-8.3,6.3-16.7,12.7-25,19.1c-6.5-12-10.7-24.7-14.1-37.7
		c-6.5-25.3-7.5-51-4-76.7c2.8-20.2,8.6-39.7,18.1-57.9c11.7,9,23.3,18,34.9,26.9c10,7.7,20.1,15.3,30.1,23
		c-1.7,8.3-4.1,16.5-4.9,25.1c-1.4,15.6,0.1,30.7,4.5,45.7C155.8,291.9,155.9,292.6,156,293.4z"/>
</g>
</svg>
