<?xml version="1.0" encoding="utf-8"?>
<!-- Generator: Adobe Illustrator 25.3.0, SVG Export Plug-In . SVG Version: 6.00 Build 0)  -->
<svg version="1.1" id="Capa_1" xmlns="http://www.w3.org/2000/svg" xmlns:xlink="http://www.w3.org/1999/xlink" x="0px" y="0px"
	 viewBox="0 0 792 792" style="enable-background:new 0 0 792 792;" xml:space="preserve">
<style type="text/css">
	.st0{fill:#0EBC62;}
	.st1{fill:#FFFFFF;}
</style>
<rect x="-12.7" class="st0" width="802.3" height="802.3"/>
<g>
	<g>
		<path class="st1" d="M479.8,659.3c0,0,47.9,0,47.9-47.9V180.6c0-47.9-47.9-47.9-47.9-47.9H312.2c0,0-47.9,0-47.9,47.9v430.8
			c0,47.9,47.9,47.9,47.9,47.9H479.8z M288.3,180.6c0-11.5,3.6-16.9,10.7-20.5c5.1-2.5,10.6-3.4,13.2-3.4h167.5
			c2.6,0,8.2,0.9,13.2,3.4c7.1,3.6,10.7,9,10.7,20.5v12H288.3V180.6z M288.3,216.5h215.4v323.1H288.3V216.5z M288.3,611.4v-47.9
			h215.4v47.9c0,11.5-3.6,16.9-10.7,20.5c-5.1,2.5-10.6,3.4-13.2,3.4H312.2c-2.6,0-8.2-0.9-13.2-3.4
			C291.9,628.3,288.3,622.9,288.3,611.4z"/>
		<path class="st1" d="M428.7,168.6h-65.4c-1.8,0-3.2,2.3-3.2,5.3v1.4c0,2.9,1.4,5.3,3.2,5.3h65.4c1.8,0,3.2-2.3,3.2-5.3v-1.4
			C431.9,171,430.5,168.6,428.7,168.6z"/>
		<circle class="st1" cx="396" cy="599.4" r="23.9"/>
	</g>
</g>
</svg>
